<?xml version="1.0" encoding="UTF-8"?>
<svg version="1.1" xmlns="http://www.w3.org/2000/svg" width="512" height="512">
<path d="M0 0 C0.77988281 0.66902344 1.55976563 1.33804688 2.36328125 2.02734375 C14.23921658 12.46494976 25.34253797 23.56457662 34.74121094 36.296875 C35.97069396 37.96034931 37.22216212 39.60527552 38.4765625 41.25 C52.73068658 60.24607892 63.82822272 81.98386638 71.4375 104.4375 C71.76782227 105.40792236 72.09814453 106.37834473 72.43847656 107.37817383 C80.16949468 131.15206645 78.36687716 155.09555087 67.28515625 177.4609375 C61.44487826 188.51973225 53.78619797 198.17965118 44 206 C48.47216035 211.42593862 53.27429741 216.23396684 58.4375 221 C63.21064732 225.42948071 67.9215667 229.89177897 72.50561523 234.51708984 C74.20596786 236.20438634 75.97626977 237.77470899 77.8125 239.3125 C82.80240537 243.61313829 87.37883148 248.31098398 92 253 C93.29357422 254.28003906 93.29357422 254.28003906 94.61328125 255.5859375 C104.10162978 265.18299051 108.46360931 275.63089107 108.5625 289.0625 C108.36317433 301.71791067 105.03709922 311.14253216 97 321 C96.49984375 321.63679688 95.9996875 322.27359375 95.484375 322.9296875 C88.14991396 331.26430232 75.76355495 336.48370447 64.828125 337.2109375 C48.04649091 337.68727209 36.46034427 332.61264964 24.30078125 321.28515625 C21.66484367 318.66711978 19.23692987 315.93673519 16.84375 313.09765625 C14.66481363 310.61865449 12.34954435 308.31769812 10 306 C6.41441301 302.45767801 3.05108338 298.82444339 -0.22265625 294.99609375 C-2.23268777 292.73867374 -4.34832953 290.62264287 -6.5 288.5 C-9.26560408 285.77170593 -11.91287031 283.01483166 -14.4375 280.0625 C-17.15619248 276.8896408 -20.02751675 273.93661618 -23 271 C-26.56400302 267.47893677 -29.90304168 263.86813992 -33.15625 260.0625 C-35.34796313 257.61075311 -37.66067104 255.31114427 -40 253 C-43.55745223 249.48540864 -46.89265853 245.88354334 -50.13671875 242.08203125 C-53.2229913 238.63342901 -56.55158454 235.42977128 -59.86328125 232.19921875 C-62 230 -62 230 -64 227 C-71.50950962 227.56321322 -76.79762413 231.4379073 -81.8125 236.8125 C-88.75010011 245.38154488 -88.93634437 254.33844251 -88 265 C-86.20435626 273.14452696 -81.63544479 279.79272922 -74.78125 284.53515625 C-67.12962217 288.79572175 -59.05164132 289.4505429 -50.48046875 290.3828125 C-38.05622905 291.88961114 -28.3747702 295.62062046 -19 304 C-18.37351562 304.54527344 -17.74703125 305.09054687 -17.1015625 305.65234375 C-7.00648878 315.02004317 -1.72692292 328.36176269 -0.796875 341.97265625 C-0.55519955 357.90309645 -4.79361963 371.64250845 -15.6875 383.5625 C-27.56296227 394.75283945 -43.30511364 402.1713159 -58 409 C-59.10988281 409.51949219 -60.21976562 410.03898437 -61.36328125 410.57421875 C-84.79136351 421.06317215 -110.41723824 427.82574762 -136 430 C-137.20914062 430.10957031 -138.41828125 430.21914063 -139.6640625 430.33203125 C-187.98959613 434.14720496 -235.29403039 423.64744619 -278 401 C-279.73636719 400.07960938 -279.73636719 400.07960938 -281.5078125 399.140625 C-296.1604299 391.06332793 -309.54200307 381.13831061 -322 370 C-322.52996582 369.52643066 -323.05993164 369.05286133 -323.60595703 368.56494141 C-327.11050831 365.41814861 -330.56721185 362.22489403 -334 359 C-334.98419922 358.07960938 -334.98419922 358.07960938 -335.98828125 357.140625 C-341.14007791 352.1664765 -345.52894867 346.58105192 -350 341 C-350.99 339.81083984 -350.99 339.81083984 -352 338.59765625 C-361.80000934 326.72304815 -369.86000134 313.61363765 -377 300 C-377.60328125 298.85265381 -377.60328125 298.85265381 -378.21875 297.68212891 C-389.26434034 276.36327661 -396.53358989 253.55707196 -401 230 C-401.24339111 228.8251001 -401.24339111 228.8251001 -401.49169922 227.62646484 C-406.93803427 200.76574739 -406.55195292 168.80044009 -401 142 C-400.83902832 141.15099121 -400.67805664 140.30198242 -400.51220703 139.42724609 C-394.47364423 107.76104594 -382.5243086 76.50723212 -364 50 C-363.47293457 49.24283691 -362.94586914 48.48567383 -362.40283203 47.70556641 C-355.68054472 38.13709525 -348.65347752 29.09663462 -340.546875 20.6640625 C-338.51555274 18.5392745 -336.61090591 16.3961056 -334.75 14.125 C-332.15175145 11.04335637 -329.24308098 8.4668788 -326.171875 5.86328125 C-323.88880599 3.90460514 -321.70133397 1.86239992 -319.5 -0.1875 C-306.80149533 -11.5736972 -292.76815695 -20.55348661 -278 -29 C-277.02063477 -29.57210205 -277.02063477 -29.57210205 -276.02148438 -30.15576172 C-194.85131693 -77.43237106 -86.99682753 -64.88943117 0 0 Z M-303.44921875 28.625 C-306 31 -306 31 -308.62890625 33.0859375 C-310.77663408 34.81968814 -312.47766921 36.52147608 -314.25 38.625 C-316.1257691 40.83084006 -318.0037391 43.00395905 -319.9921875 45.109375 C-332.27181134 58.15366406 -341.83945529 73.11633872 -350 89 C-350.34869141 89.66225586 -350.69738281 90.32451172 -351.05664062 91.00683594 C-360.89859237 109.83450845 -367.81272441 130.99124981 -371 152 C-371.17442627 153.14533203 -371.34885254 154.29066406 -371.52856445 155.47070312 C-372.95517405 165.71744857 -373.36125208 175.78702073 -373.3125 186.125 C-373.31067719 186.93226532 -373.30885437 187.73953064 -373.30697632 188.57125854 C-373.25774874 201.56750012 -372.63709417 214.23646423 -370 227 C-369.74259033 228.24740967 -369.74259033 228.24740967 -369.47998047 229.52001953 C-363.69080329 256.49996499 -353.21172469 283.54041531 -337 306 C-336.3198584 306.95543701 -336.3198584 306.95543701 -335.62597656 307.93017578 C-329.41812235 316.60334017 -322.90164104 324.80379011 -315.47460938 332.47412109 C-314.45365211 333.53057522 -313.43976855 334.59389417 -312.43164062 335.66259766 C-294.74264556 354.40299954 -273.40891933 369.27342288 -250 380 C-249.29214355 380.3309668 -248.58428711 380.66193359 -247.85498047 381.00292969 C-222.34310371 392.82288589 -194.10264841 399.26298642 -166 400 C-165.06542969 400.03996094 -164.13085938 400.07992188 -163.16796875 400.12109375 C-123.7314633 401.08020762 -69.1460614 389.64431357 -39 362 C-34.17929061 356.77923174 -32.09410169 351.81256965 -31.8359375 344.703125 C-32.25135874 337.85856559 -34.6493647 332.81713067 -39.01171875 327.60546875 C-45.47386432 322.38750838 -52.03245948 321.31484345 -60.125 320.5625 C-78.19346805 318.50526297 -94.0612409 312.44538168 -106 298 C-116.95636174 283.1699455 -121.69427679 266.8626657 -119.60546875 248.5390625 C-117.48688109 235.49949717 -112.15417129 223.61187986 -103 214 C-103 213.34 -103 212.68 -103 212 C-102.43539063 211.7421875 -101.87078125 211.484375 -101.2890625 211.21875 C-98.75063096 209.86723014 -96.6314695 208.2810261 -94.375 206.5 C-93.21097656 205.58734375 -93.21097656 205.58734375 -92.0234375 204.65625 C-89.94337933 203.0095757 -89.94337933 203.0095757 -88 201 C-90.51895239 198.31073183 -93.04050992 195.62391938 -95.5625 192.9375 C-96.26697266 192.18533203 -96.97144531 191.43316406 -97.69726562 190.65820312 C-101.56821335 186.53751683 -105.49246048 182.48910684 -109.50610352 178.50756836 C-111.31874995 176.67833291 -113.0181476 174.77287751 -114.6875 172.8125 C-115.78031803 171.53189462 -116.88460724 170.26099182 -118 169 C-118.86117432 167.96020996 -118.86117432 167.96020996 -119.73974609 166.89941406 C-122.64703172 164.45626412 -124.08860516 164.5686534 -127.83984375 164.71484375 C-129.55977539 164.75448242 -129.55977539 164.75448242 -131.31445312 164.79492188 C-133.10786133 164.86549805 -133.10786133 164.86549805 -134.9375 164.9375 C-147.49797093 165.40476905 -158.88608865 164.30026234 -170.125 158.3125 C-170.7945874 157.96509766 -171.4641748 157.61769531 -172.15405273 157.25976562 C-197.03136676 144.02366326 -205.43070236 122.4571582 -213.31965637 96.69271851 C-233.82945008 28.48835024 -233.82945008 28.48835024 -226.875 7.625 C-224.56932857 4.39705999 -222.78583806 2.22936921 -219 1 C-209.02142741 0.18943705 -199.2074432 1.54517738 -189.375 3.125 C-188.665784 3.23604065 -187.95656799 3.3470813 -187.2258606 3.46148682 C-100.03079742 17.14262146 -100.03079742 17.14262146 -78.4375 44.625 C-67.01816713 60.39455492 -62.20269434 77.6536127 -63 97 C-63.15106201 97.70382813 -63.30212402 98.40765625 -63.45776367 99.1328125 C-64.37685694 103.67581569 -64.37685694 103.67581569 -62.8984375 107.91870117 C-61.21988251 109.80370806 -59.46089289 111.46189019 -57.5625 113.125 C-56.9137793 113.73118164 -56.26505859 114.33736328 -55.59667969 114.96191406 C-53.75522418 116.67071845 -51.88663554 118.34138409 -50 120 C-49.22011719 120.69351563 -48.44023437 121.38703125 -47.63671875 122.1015625 C-46.40671951 123.17622022 -45.1687415 124.24183411 -43.921875 125.296875 C-40.60637509 128.23500094 -37.55366203 131.43957569 -34.44140625 134.58984375 C-31.72797273 137.26854532 -28.89222977 139.74608118 -25.99609375 142.22265625 C-22.93196187 144.95099285 -20.09518168 147.89667908 -17.21484375 150.81640625 C-15.22340539 152.77974671 -13.18697422 154.62079669 -11.0625 156.4375 C-6.97221221 159.94229928 -3.2329093 163.75198614 0.55078125 167.58203125 C3.30335151 170.29948099 6.17016163 172.82635904 9.12109375 175.32421875 C11.72369573 177.64545835 14.0451664 180.20620682 16.359375 182.8125 C17.92887026 184.21313764 17.92887026 184.21313764 19.96484375 183.87890625 C23.97525694 182.14696197 26.88682286 178.99635998 30 176 C30.61488281 175.41089844 31.22976563 174.82179687 31.86328125 174.21484375 C41.12519384 164.54220333 45.88344987 150.49358541 46.4375 137.25 C45.18699001 98.63425153 16.58163936 60.76289832 -9 34 C-9.63550781 33.32324219 -10.27101563 32.64648438 -10.92578125 31.94921875 C-46.98732565 -5.48937746 -102.8068458 -26.54815962 -154 -28 C-154.91136719 -28.03996094 -155.82273438 -28.07992187 -156.76171875 -28.12109375 C-210.5365094 -29.42518996 -264.56834522 -8.33107781 -303.44921875 28.625 Z M-195 33 C-194.50348814 42.44485788 -192.87645846 51.52908066 -190.875 60.75 C-190.64457001 61.82500259 -190.64457001 61.82500259 -190.40948486 62.92172241 C-183.47300975 100.18547861 -183.47300975 100.18547861 -161 129 C-150.11693122 134.91537587 -138.90536071 136.82700835 -126.66796875 134.31640625 C-120.03158412 132.26330138 -114.43125596 129.31769091 -109 125 C-108.38511719 124.52175781 -107.77023437 124.04351562 -107.13671875 123.55078125 C-99.76456169 117.06132149 -94.57117997 106.14712179 -93.1484375 96.48828125 C-92.31142615 82.4573279 -96.70510369 70.9329148 -105.49609375 60.16796875 C-125.10477424 40.10643189 -168.35476681 36.6834788 -195 33 Z M-78 137 C-79.30273622 138.34674758 -80.5433539 139.75402315 -81.75 141.1875 C-84.9460906 144.88516686 -88.14290796 148.01075367 -92 151 C-84.36560142 160.11886497 -76.26280225 168.84521093 -67.78515625 177.18359375 C-65.98081164 179.01952426 -64.29968611 180.92055194 -62.625 182.875 C-59.88378551 186.06682509 -56.99314112 189.04302977 -54 192 C-50.43599698 195.52106323 -47.09695832 199.13186008 -43.84375 202.9375 C-40.84649772 206.29035849 -37.60840366 209.39893756 -34.41015625 212.55859375 C-31.73145468 215.27202727 -29.25391882 218.10777023 -26.77734375 221.00390625 C-24.76731223 223.26132626 -22.65167047 225.37735713 -20.5 227.5 C-17.73439592 230.22829407 -15.08712969 232.98516834 -12.5625 235.9375 C-9.84380752 239.1103592 -6.97248325 242.06338382 -4 245 C-0.43599698 248.52106323 2.90304168 252.13186008 6.15625 255.9375 C8.34796313 258.38924689 10.66067104 260.68885573 13 263 C16.56400302 266.52106323 19.90304168 270.13186008 23.15625 273.9375 C25.34796313 276.38924689 27.66067104 278.68885573 30 281 C32.95183025 283.91626603 35.80388859 286.84605835 38.5 290 C41.27731958 293.22484975 44.15935048 296.32186819 47.125 299.375 C47.93195313 300.20773437 48.73890625 301.04046875 49.5703125 301.8984375 C53.01967215 304.88196723 55.81684318 305.86605772 60.3125 306.375 C66.18261858 305.77803879 70.37147406 303.71204009 74.4375 299.4375 C76.64565114 295.99278423 77.19522474 293.20572072 77.3125 289.1875 C77.34988281 288.35605469 77.38726562 287.52460938 77.42578125 286.66796875 C76.47630192 280.71847903 71.88767545 276.63515484 67.75 272.5625 C67.26547363 272.08441895 66.78094727 271.60633789 66.28173828 271.11376953 C62.95084016 267.85334331 59.50539347 264.76582545 55.9609375 261.7421875 C52.90633647 259.02833878 50.08338457 256.09136248 47.21484375 253.18359375 C45.22340539 251.22025329 43.18697422 249.37920331 41.0625 247.5625 C37.8896408 244.84380752 34.93661618 241.97248325 32 239 C29.08373397 236.04816975 26.15394165 233.19611141 23 230.5 C18.92376781 227.01547893 15.20449127 223.21918019 11.4375 219.40625 C9.34999365 217.34550655 7.22830777 215.40484374 5 213.5 C0.9251665 210.01667458 -2.79292992 206.22181292 -6.55859375 202.41015625 C-9.27202727 199.73145468 -12.10777023 197.25391882 -15.00390625 194.77734375 C-18.06803813 192.04900715 -20.90481832 189.10332092 -23.78515625 186.18359375 C-25.77659461 184.22025329 -27.81302578 182.37920331 -29.9375 180.5625 C-33.1103592 177.84380752 -36.06338382 174.97248325 -39 172 C-41.91626603 169.04816975 -44.84605835 166.19611141 -48 163.5 C-52.07063741 160.02026157 -55.78519395 156.22971164 -59.546875 152.421875 C-62.32143743 149.68265731 -65.21360255 147.1332456 -68.1796875 144.60546875 C-70.00224092 142.99802356 -71.68798376 141.31064002 -73.375 139.5625 C-75.62712763 136.76715443 -75.62712763 136.76715443 -78 137 Z " fill="#000000" transform="translate(404,70)"/>
<path d="M0 0 C8.81681061 7.50620363 14.85433006 15.92788437 18.4140625 26.96484375 C18.63964844 27.64675781 18.86523438 28.32867187 19.09765625 29.03125 C22.93090911 42.96314143 20.66015223 57.96142703 14.2265625 70.65234375 C5.90201191 85.22901497 -6.2585005 94.31523226 -22.453125 98.75 C-36.90728135 101.70742223 -51.49643548 99.66945671 -64.36328125 92.39453125 C-79.15176212 82.59630818 -87.75377069 69.65364999 -91.3359375 52.33984375 C-92.59284953 35.37153138 -88.89821187 19.3140176 -77.7734375 6.02734375 C-56.85164366 -15.65890025 -23.79121809 -18.72390427 0 0 Z M-55.18359375 28.1171875 C-59.18826277 33.39353415 -60.73552942 39.42554003 -60.5859375 45.96484375 C-59.48487961 53.50826162 -56.32906419 58.98132901 -50.5859375 63.96484375 C-44.6767229 68.11693955 -38.21438929 69.64867411 -31.07421875 68.59375 C-23.87250523 66.8181361 -18.57826728 63.11941177 -14.23828125 57.09375 C-10.60317985 51.03524766 -9.40343037 44.85316062 -11.08203125 37.9140625 C-13.88976834 29.74465798 -17.80091791 24.87794258 -25.5 20.91015625 C-36.14627598 16.08543942 -47.53309276 19.63863229 -55.18359375 28.1171875 Z " fill="#000000" transform="translate(242.5859375,338.03515625)"/>
<path d="M0 0 C10.93822816 9.26180776 18.33097665 22.64958418 20.13671875 36.9296875 C21.19979232 53.81620223 16.9435708 69.3090056 5.88671875 82.3671875 C-4.97899214 93.56327474 -19.74848116 99.89413838 -35.30078125 100.2421875 C-50.31390092 100.08398814 -64.27275398 94.7243083 -75.3515625 84.50390625 C-85.88829765 73.53154381 -91.66513692 59.27012818 -92.30078125 44.1171875 C-91.81287223 28.72772379 -86.08863832 13.70937283 -74.86328125 2.9296875 C-53.23617513 -16.35407529 -23.13624193 -16.72879703 0 0 Z M-53.80078125 25.9921875 C-58.19956236 30.95274065 -60.62922273 36.96239562 -61.01953125 43.578125 C-60.53679268 51.42262669 -57.85896406 57.33071064 -52.17578125 62.7421875 C-46.31966672 67.4638149 -40.8189381 69.26198173 -33.30078125 68.9296875 C-25.43187682 67.89661904 -19.99271018 63.95007896 -15.1171875 57.8125 C-11.49809592 52.37822542 -9.81204941 46.46404907 -10.86328125 39.9296875 C-13.12846701 31.36782465 -17.36956791 25.99358296 -24.61328125 21.0546875 C-35.02424342 17.4508929 -45.346322 18.51116279 -53.80078125 25.9921875 Z " fill="#000000" transform="translate(144.86328125,207.0703125)"/>
</svg>
